<svg width="13" height="13" viewBox="0 0 13 13" fill="none" xmlns="http://www.w3.org/2000/svg">
<g clip-path="url(#clip0)">
<path d="M12.0289 9.35754C11.9974 9.30473 11.8023 8.88083 10.8635 8.00957C9.8808 7.09723 10.0128 7.24538 11.1965 5.66786C11.9174 4.70712 12.2056 4.12041 12.1154 3.8696C12.0296 3.63051 11.4994 3.69358 11.4994 3.69358L9.73633 3.70385C9.73633 3.70385 9.60578 3.68625 9.50824 3.74419C9.41364 3.80139 9.35277 3.9334 9.35277 3.9334C9.35277 3.9334 9.07334 4.67705 8.70078 5.30924C7.91533 6.64327 7.6007 6.71367 7.47236 6.6308C7.17387 6.43792 7.24868 5.85488 7.24868 5.44125C7.24868 4.14828 7.44449 3.60924 6.86658 3.4699C6.67444 3.4237 6.53363 3.39289 6.04299 3.38776C5.41374 3.38116 4.88057 3.38996 4.57915 3.53737C4.3782 3.63564 4.22346 3.85493 4.31806 3.8674C4.43467 3.8828 4.69869 3.93853 4.83877 4.12921C5.01991 4.3749 5.01331 4.92787 5.01331 4.92787C5.01331 4.92787 5.11746 6.44965 4.77056 6.63887C4.53221 6.76868 4.20585 6.50392 3.50547 5.2931C3.14684 4.67339 2.87549 3.98767 2.87549 3.98767C2.87549 3.98767 2.82342 3.86006 2.73028 3.79186C2.61734 3.70898 2.45893 3.68258 2.45893 3.68258L0.782405 3.69285C0.782405 3.69285 0.530853 3.70018 0.438446 3.80946C0.356307 3.907 0.431846 4.10795 0.431846 4.10795C0.431846 4.10795 1.74461 7.17864 3.23045 8.72682C4.59382 10.1459 6.14126 10.0528 6.14126 10.0528H6.84238C6.84238 10.0528 7.05433 10.0293 7.16214 9.91271C7.26188 9.80564 7.25821 9.60469 7.25821 9.60469C7.25821 9.60469 7.24428 8.66375 7.68138 8.52514C8.11187 8.38873 8.66485 9.43454 9.25082 9.83717C9.69379 10.1415 10.0304 10.0748 10.0304 10.0748L11.5977 10.0528C11.5977 10.0528 12.4176 10.0022 12.0289 9.35754Z" fill="white"/>
</g>
<defs>
<clipPath id="clip0">
<rect width="11.7333" height="11.7333" fill="white" transform="translate(0.400146 0.866943)"/>
</clipPath>
</defs>
</svg>
