<svg width="13" height="12" viewBox="0 0 13 12" fill="none" xmlns="http://www.w3.org/2000/svg">
<g clip-path="url(#clip0)">
<path d="M8.96228 0.133057H3.70493C1.91956 0.133057 0.467041 1.58564 0.467041 3.37101V8.62836C0.467041 10.4138 1.91956 11.8663 3.70493 11.8663H8.96228C10.7478 11.8663 12.2003 10.4137 12.2003 8.62836V3.37101C12.2004 1.58564 10.7478 0.133057 8.96228 0.133057ZM11.1593 8.62836C11.1593 9.83978 10.1738 10.8253 8.96235 10.8253H3.70493C2.49358 10.8254 1.50807 9.83978 1.50807 8.62836V3.37101C1.50807 2.15967 2.49358 1.17409 3.70493 1.17409H8.96228C10.1737 1.17409 11.1593 2.15967 11.1593 3.37101V8.62836H11.1593Z" fill="white"/>
<path d="M6.33367 2.97632C4.66656 2.97632 3.3103 4.33257 3.3103 5.99968C3.3103 7.66672 4.66656 9.02291 6.33367 9.02291C8.00078 9.02291 9.35703 7.66672 9.35703 5.99968C9.35703 4.33257 8.00078 2.97632 6.33367 2.97632ZM6.33367 7.98181C5.24065 7.98181 4.35133 7.09263 4.35133 5.99961C4.35133 4.90653 5.24058 4.01728 6.33367 4.01728C7.42675 4.01728 8.316 4.90653 8.316 5.99961C8.316 7.09263 7.42668 7.98181 6.33367 7.98181Z" fill="white"/>
<path d="M9.48388 2.09375C9.28331 2.09375 9.08628 2.17495 8.94463 2.31722C8.80228 2.45881 8.72046 2.65591 8.72046 2.85717C8.72046 3.05781 8.80235 3.25485 8.94463 3.39712C9.08621 3.5387 9.28331 3.6206 9.48388 3.6206C9.68515 3.6206 9.88155 3.5387 10.0238 3.39712C10.1661 3.25485 10.2473 3.05775 10.2473 2.85717C10.2473 2.65591 10.1661 2.45881 10.0238 2.31722C9.88225 2.17495 9.68515 2.09375 9.48388 2.09375Z" fill="white"/>
</g>
<defs>
<clipPath id="clip0">
<rect width="11.7333" height="11.7333" fill="white" transform="translate(0.467041 0.133057)"/>
</clipPath>
</defs>
</svg>
