<svg width="22" height="22" viewBox="0 0 22 22" fill="none" xmlns="http://www.w3.org/2000/svg">
<path d="M10.956 0C4.906 0.022 0 4.95 0 11C0 12.925 0.506 14.828 1.463 16.489L1.694 16.896L0.517 20.933L4.378 19.8L4.807 20.097C6.633 21.34 8.778 22 11 22C17.061 22 22 17.061 22 11C22 4.95 17.094 0.022 11.044 0H10.956Z" fill="#00C958"/>
<path d="M8.185 13.8161C8.185 13.8161 10.968 16.8081 13.883 17.3251C16.116 17.7211 17.095 15.8181 17.348 14.8721C17.436 14.5421 17.348 14.2011 17.106 13.9701C16.875 13.7391 14.818 12.8151 14.323 12.7821C13.982 12.7601 13.707 12.9031 13.465 13.2221L12.97 13.8491C12.772 14.1021 12.508 14.1681 12.266 14.0361C11.771 13.7611 10.913 13.1891 9.868 12.1441C8.823 11.0991 8.24 10.2411 7.965 9.74609C7.822 9.50409 7.899 9.24009 8.152 9.04209L8.779 8.54709C9.098 8.29409 9.241 8.03009 9.219 7.68909C9.186 7.18309 8.262 5.13709 8.031 4.90609C7.8 4.66409 7.459 4.57609 7.129 4.66409C6.194 4.91709 4.28 5.89609 4.676 8.12909C5.193 11.0331 8.185 13.8161 8.185 13.8161Z" fill="white"/>
</svg>
